<svg width="483" height="483" viewBox="0 0 483 483" fill="none" xmlns="http://www.w3.org/2000/svg">
<path d="M317.391 407.803L317.45 407.533C317.337 407.681 317.292 407.79 317.391 407.803ZM336.185 406.713C336.328 406.847 336.535 406.978 336.824 407.1L336.185 406.713ZM301.793 408.402L301.403 409.014C302.012 409.01 301.746 408.701 301.793 408.402ZM279.601 406.296C279.581 406.277 279.556 406.265 279.534 406.24C279.218 406.488 279.357 406.45 279.601 406.296ZM353.83 407.266C353.845 407.26 353.853 407.245 353.865 407.239C353.849 407.232 353.833 407.224 353.818 407.216L353.83 407.266Z" fill="#F4910F"/>
<path d="M336.871 406.812C336.815 406.699 336.782 406.576 336.773 406.45C336.684 406.561 336.682 406.692 336.871 406.812ZM301.864 408.289C301.852 408.282 301.84 408.284 301.827 408.28C301.809 408.318 301.796 408.36 301.791 408.402L301.864 408.289ZM373.489 407.201C373.318 407.133 373.172 407.012 373.069 406.856C373.059 407.02 373.157 407.157 373.489 407.201ZM361.847 407.136C361.255 407.487 360.945 407.289 361.216 408.217C362.198 408.556 361.449 407.346 362.335 407.769C362.565 407.435 361.611 407.424 361.847 407.136ZM361.847 407.136C361.954 407.074 362.054 407.003 362.148 406.923C362.035 406.973 361.933 407.045 361.847 407.136ZM322.243 408.812L322.736 409.317L322.785 409.101C322.686 408.865 322.539 408.848 322.243 408.812ZM314.181 408.644L314.329 408.663L314.052 407.849L314.181 408.644ZM307.001 409.681C307.294 409.715 307.638 409.534 307.932 409.57C307.294 409.715 306.921 408.667 307.001 409.681Z" fill="#F4910F"/>
<path d="M390.274 136.878C390.413 136.85 390.069 136.489 390.032 136.411C389.911 136.596 390.356 136.977 390.274 136.878ZM385.625 138.704L385.541 138.658C385.484 138.694 385.422 138.72 385.357 138.737C385.589 138.973 385.31 139.072 385.625 138.704ZM385.541 138.655C385.275 138.496 385.71 138.54 385.541 138.655V138.655ZM384.803 139.263L384.887 138.893C384.736 138.761 384.502 138.838 384.504 138.679C384.348 138.944 384.498 139.076 384.803 139.263ZM384.959 139.724C384.896 139.669 384.846 139.663 384.9 139.895L384.959 139.724ZM385.031 139.581C385.14 139.798 385.066 139.573 385.086 139.366L384.959 139.726C385.066 139.817 385.213 140.042 385.031 139.581ZM385.304 139.39C385.535 139.467 385.775 139.467 385.687 139.838C386.089 139.493 385.699 139.045 385.304 139.39ZM383.095 139.705C383.171 139.863 383.415 140.063 383.548 140.246L383.622 139.977C383.468 139.922 383.241 139.92 383.095 139.705Z" fill="#323232"/>
<path d="M383.548 140.244L383.436 140.646C383.694 140.547 383.663 140.402 383.548 140.244ZM382.033 140.147L381.99 139.733L382.011 140.374L382.033 140.147ZM381.354 140.488C381.309 140.149 380.92 140.057 380.942 139.827C380.78 139.956 380.756 140.271 380.729 140.557C380.819 140.368 381.004 140.334 381.354 140.488ZM382.443 140.438L382.802 140.82L382.919 140.783C382.841 140.698 382.66 140.478 382.443 140.438ZM382.812 140.831L382.8 140.82C382.714 140.843 382.629 140.867 382.544 140.892L382.812 140.831ZM383.538 140.804L383.397 141.25C383.52 141.245 383.639 141.231 383.751 141.207C383.68 141.098 383.53 140.963 383.538 140.804ZM383.397 141.25L383.263 141.258L383.325 141.443L383.397 141.25ZM381.393 141.186C381.365 141.426 381.229 141.498 381.084 141.592C381.285 141.613 381.488 141.586 381.678 141.515C381.629 141.369 381.57 141.098 381.393 141.186ZM379.488 142.219L379.554 142.289L379.521 142.211L379.488 142.219ZM381.951 141.317C381.875 141.402 381.782 141.468 381.678 141.513C381.701 141.578 381.721 141.62 381.752 141.582C381.931 141.613 381.951 141.479 381.951 141.317ZM380.325 141.361C380.437 141.423 380.554 141.473 380.676 141.51C380.538 141.401 380.29 141.239 380.325 141.361ZM381.978 140.987L381.986 140.959C381.892 140.886 381.922 140.928 381.978 140.987Z" fill="#323232"/>
<path d="M381.978 140.987C381.945 141.075 381.952 141.201 381.952 141.317C382.014 141.252 382.061 141.174 382.089 141.087L381.978 140.987ZM380.147 142.104L380.246 142.005C380.069 141.99 379.885 141.868 379.54 141.624C379.438 141.902 379.47 142.07 379.524 142.211L380.161 142.028L380.147 142.104ZM379.323 142.022L379.155 141.531L379.202 142.299L379.323 142.022ZM378.72 142.327L378.546 141.912L378.499 142.223L378.72 142.327ZM362.432 146.58C362.132 146.21 361.773 145.619 361.886 146.109L362.038 146.576C362.181 146.462 362.311 146.494 362.432 146.58ZM350.787 150.335L350.859 150.483L351.013 150.018L350.787 150.335ZM372.138 144.668C371.967 144.564 371.771 144.511 371.572 144.517C371.89 144.721 372.214 145.07 372.138 144.668ZM371.031 144.668L371.166 144.75C371.277 144.634 371.394 144.533 371.572 144.517C371.339 144.365 371.109 144.294 371.031 144.668ZM305.652 139.583C305.623 139.535 305.547 139.508 305.387 139.518C305.461 139.514 305.557 139.552 305.652 139.583ZM376.266 143.061L376.401 143.059C376.387 142.977 376.35 142.935 376.266 143.061ZM376.157 143.198C376.118 143.176 376.095 143.139 376.095 143.139L375.921 143.237C375.995 143.203 376.076 143.189 376.157 143.198ZM377.143 142.608C377.272 142.529 377.371 142.617 377.478 142.669C377.418 142.556 377.285 142.409 377.371 142.364L377.143 142.608ZM375.796 143.644C375.944 143.726 375.63 143.082 375.761 143.24C375.646 142.667 375.361 144.079 375.796 143.644ZM304.686 138.557L304.54 138.235L304.52 138.651L304.686 138.557ZM303.773 139.11L304.079 138.435L303.595 138.956C303.669 138.952 303.812 138.944 303.773 139.11Z" fill="#323232"/>
<path d="M270.013 347.159C278.305 357.471 286.812 368.16 293.368 379.543C293.618 374.099 298.434 368.095 301.899 364.569C304.893 361.521 308.834 358.413 313.053 356.789L278.844 342.078C278.844 342.076 275.42 343.864 270.013 347.159ZM344.292 353.768C342.282 354.743 340.267 355.681 338.245 356.587C342.655 358.148 346.787 361.397 349.901 364.567C353.069 367.792 357.363 373.089 358.267 378.136C364.9 366.87 373.393 356.276 381.615 346.048C379.655 344.922 377.681 343.822 375.694 342.749L344.292 353.768ZM330.66 371.511C332.094 367.287 333.311 362.989 334.306 358.634L334.23 358.592L329.609 374.288C329.976 373.369 330.341 372.445 330.66 371.511Z" fill="#F4910F"/>
<path d="M356.487 381.187L356.583 381.021C355.222 379.112 354.519 376.815 353.362 374.743C351.876 372.082 350.141 369.633 348.044 367.443C344.468 363.707 340.469 361.837 336.241 359.664C334.56 368.51 332.409 378.751 327.377 386.046C327.232 386.259 327.018 386.413 326.773 386.48C326.528 386.547 326.268 386.523 326.039 386.412L325.651 387.731L325.222 386.503C325.064 386.494 324.909 386.448 324.77 386.37C324.631 386.291 324.511 386.181 324.419 386.048C319.387 378.755 317.236 368.512 315.555 359.668C311.329 361.843 307.31 363.73 303.753 367.447C301.501 369.799 299.654 372.458 298.104 375.34C296.984 377.423 296.379 379.659 294.899 381.496C294.815 381.599 294.707 381.678 294.585 381.725C294.985 382.865 293.501 384.052 292.635 383.027C283.585 372.309 275.734 360.236 267.467 348.737C251.424 358.784 222.464 379.508 207.767 405.987H238.316C238.322 406.065 238.34 406.141 238.334 406.219C238.407 406.114 238.508 406.033 238.625 405.987H239.085C239.874 406.261 240.875 407.519 241.877 406.278C242.177 406.549 241.621 406.705 241.781 407.012C242.126 406.444 242.542 406.326 243.313 406.581L243.227 406.722C245.392 406.583 246.321 407.144 248.755 407.517L248.574 406.86C249.097 406.947 249.208 407.153 249.452 407.319C250.052 406.324 247.984 407.262 248.529 406.166C249.222 407.5 252.216 406.185 252.685 407.702C253.489 407.71 252.449 406.942 253.253 406.951L253.466 407.361L253.669 406.833C254.196 406.919 254.463 407.435 254.481 407.782C254.354 407.74 254.118 407.879 253.981 407.908C254.664 408.392 255.908 407.744 256.144 407.9L255.371 407.647C257.567 407.262 260.247 407.803 262.367 406.968L262.205 406.658C263.825 406.086 263.503 406.999 265.281 406.734L265.217 406.808C265.586 406.495 266.059 406.341 266.536 406.379C266.087 406.741 267.38 407.083 266.792 407.485C268.469 406.898 267.756 406.978 268.695 405.987H268.892L269.088 406.366C269.216 406.217 269.308 406.095 269.402 405.987H270.218C270.345 406.248 270.669 406.52 270.155 406.888C272.018 408.011 272.921 405.754 273.776 407.397C274.631 405.975 272.164 406.608 272.642 406.303C272.603 406.262 272.578 406.21 272.567 406.154C272.557 406.098 272.563 406.04 272.584 405.987H274.606C275.004 406.513 275.516 407.191 276.443 407.174C276.294 407.168 276.283 407.275 276.136 407.269C276.695 407.63 277.235 406.778 277.922 407.367C278.307 406.507 278.813 407.416 278.924 406.32L277.55 406.574C277.842 406.467 278.125 406.221 278.434 405.987H280.029C279.894 406.103 279.75 406.208 279.599 406.301C279.974 406.625 280.321 406.086 280.71 406.419C280.599 407.515 279.041 406.656 278.207 407.494C278.608 407.956 279.785 406.701 279.365 407.887C279.968 406.377 280.841 408.078 281.854 406.924L281.787 407.58C281.947 407.477 282.279 407.168 282.574 407.184L282.039 408.036C282.859 407.311 283.622 408.674 284.409 408.276C282.761 408.295 284.04 407.485 283.341 407.006C285.309 406.156 284.589 408.537 286.601 408.407C286.238 408.344 285.707 407.965 286.111 407.708C286.544 407.843 287.116 408.095 287.382 408.442C288.891 408.306 287.15 407.765 287.792 407.361C288.305 408.163 288.532 407.035 289.195 406.778L289.199 407.447C290.917 407.877 289.654 406.055 291.202 406.574L290.548 407.5L291.356 407.26L291.19 408.02C292.067 407.456 292.34 407.601 293.201 407.816C293 407.346 293.314 406.604 294.075 406.583C294.593 406.978 293.784 407.218 294.864 407.121C294.62 407.538 294.354 408.064 293.884 407.449C293.837 407.666 293.644 407.868 293.595 408.083C294.155 408.539 294.999 408.186 295.391 408.179C295.241 408.154 295.061 408.118 294.969 408.024L296.533 407.098C296.779 407.349 296.584 407.55 296.39 407.748C296.707 407.675 296.925 407.367 297.392 407.311C297.271 407.853 297.3 408.413 296.642 408.67L298.132 408.068C298.233 408.304 298.897 408.718 298.705 408.916C299.531 409.236 300.732 407.862 301.827 408.283C301.885 408.177 301.997 408.076 302.231 407.999C303.261 408.121 304.173 408.787 305.393 408.043L306.086 409.015C307.042 408.794 305.149 407.788 306.74 407.422C307.868 407.111 307.16 408.251 307.556 408.522C308.116 408.032 309.09 407.033 310.125 407.826C309.783 408.009 309.514 407.866 309.194 407.938L309.984 408.478C309.032 409.366 308.343 409.061 309.084 409.818C309.194 407.938 312.149 409.627 312.26 407.746L312.781 408.142C312.631 408.125 312.608 408.234 312.461 408.215C313.472 409.116 313.211 406.856 314.515 407.123C314.968 407.266 315.286 407.54 314.977 407.763L315.987 407.298C316.283 407.336 316.209 407.662 315.918 407.626L317.462 407.477L317.449 407.532C317.669 407.237 318.169 406.78 318.411 406.587C318.803 406.858 318.214 406.787 318.315 407.02L319.17 406.566C319.518 407.054 318.809 407.525 318.218 407.456C319.016 409.332 318.928 406.985 320.65 408.081L319.842 408.318C320.363 409.385 320.992 408.998 321.905 409.663C321.69 409.315 320.078 407.988 321.007 407.519C321.267 407.66 321.614 407.727 322.112 407.348C322.116 408.017 322.604 407.853 323.217 407.816L323.176 408.701C323.836 408.445 323.785 407.994 324.173 407.597C324.909 407.683 325.063 408.369 325.235 408.947C326.414 409.088 324.421 407.847 325.817 407.681C326.799 408.02 327.486 407.658 328.661 407.128C329.348 407.435 328.54 407.67 328.788 407.923L329.397 407.216C329.547 407.233 329.498 407.449 329.473 407.559C329.986 407.285 329.516 406.673 330.322 406.433C330.539 405.457 331.977 407.858 332.975 406.751C333.221 407.003 332.856 407.294 332.932 407.637C334.302 406.909 334.105 407.109 335.231 406.13L336.188 406.711C335.942 406.48 335.901 406.231 335.973 405.981H336.807C336.772 406.134 336.761 406.292 336.777 406.448C336.888 406.329 337.031 406.245 337.189 406.208C337.107 406.356 337.055 406.486 337.092 406.574C337.135 406.667 337.267 406.471 337.472 406.246L337.757 407.233L337.826 406.841L339.471 407.46C339.998 407.016 340.502 406.48 341.056 405.983H343.367C343.395 406.179 343.42 406.389 343.412 406.635C342.901 405.727 341.966 407.02 340.998 406.837C341.503 406.932 341.392 407.342 341.265 407.483L342.991 406.658C342.952 407.361 343.358 407.184 343.809 407.475C343.469 406.088 345.095 406.551 345.798 406.126C345.841 406.591 345.673 407.069 344.816 406.955C345.761 408.001 346.038 405.327 346.965 406.215C346.756 406.225 346.643 406.154 346.561 406.391C347.049 405.977 348.244 406.305 347.964 406.711L347.754 406.72C348.948 406.86 351.203 406.762 351.947 405.985H352.144C352.085 406.425 351.98 407.048 351.923 407.21L352.69 405.985H353.286L352.71 407.715C353.188 406.968 353.461 407.058 353.824 407.218L353.559 405.985H354.486C354.453 406.549 354.303 407.025 353.869 407.239C354.199 407.382 354.609 407.55 355.306 407.193C355.146 407.092 354.941 406.41 354.939 405.983H355.318C355.854 406.656 355.767 406.358 356.682 407.199C356.479 407.069 356.536 406.45 356.727 405.983H357.221C357.219 406.459 357.231 407.069 357.102 407.178L358.123 405.983H358.289C358.253 406.414 358.453 407.058 358.671 407.382C358.533 407.077 359.821 407.409 360.176 407.256L359.612 406.894C360.323 407.006 360.692 406.518 361.045 405.983H362.394C362.411 406.44 362.536 406.869 362.897 406.961C362.985 406.757 363.132 406.404 363.319 405.983H364.644C364.335 406.392 364.004 406.784 363.653 407.155C364.215 407.517 363.809 407.694 364.652 407.651C364.949 408.079 364.193 408.299 363.947 408.325L365.907 408.6C365.821 407.668 367.406 407.666 367.33 406.892L365.201 407.858C365.152 407.321 365.577 406.53 366.206 405.983H367.896C367.822 406.499 367.565 407.138 367.584 407.346C367.764 407.027 368.902 406.734 369.029 406.961L368.441 407.46C369.214 407.809 369.702 406.227 370.631 407.115C370.951 407.174 371.588 408.314 371.644 407.763C371.457 407.384 371.326 406.717 371.248 405.985H373.1C372.981 406.307 372.917 406.61 373.075 406.858C373.093 406.604 373.387 406.29 373.508 406.189C373.844 406.406 373.368 406.978 374.1 406.863C374.221 405.92 375.589 406.943 374.447 406.065C374.577 406.012 374.716 405.985 374.857 405.985H374.9C375.24 406.008 375.431 406.248 376.048 406.217C376.021 406.143 376.008 406.064 376.011 405.985H381.847C381.842 405.992 381.847 405.996 381.842 406.002L381.859 405.985H382.548C382.292 406.038 382.015 406.114 382.322 406.6C382.349 406.332 382.611 406.145 382.942 405.985H384.649C384.457 406.231 383.559 406.614 384.537 406.564C384.613 406.349 385.295 406.164 384.842 405.985H386.714L386.712 406.065L386.807 405.985H439.106C439.106 405.985 435.219 377.665 384.159 347.54C375.665 359.291 367.654 371.699 358.38 382.682C357.455 383.77 355.837 382.365 356.487 381.187ZM320.133 407.685C320.394 406.919 320.595 407.285 320.984 407.506C320.755 407.647 320.299 408.078 320.133 407.685Z" fill="#F4910F"/>
<path d="M453.583 407.155C441.504 382.931 422.74 363.358 399.392 350.468C395.478 348.294 391.795 345.709 388.402 342.754C389.044 342.737 389.438 341.957 388.966 341.338C387.075 338.852 384.039 337.051 381.008 335.643C381.158 335.656 381.273 335.719 381.422 335.732C371.595 324.231 366.208 309.696 364.63 293.731C368.316 289.879 371.839 285.836 375.199 281.786H372.263C368.103 286.469 363.787 290.859 359.76 294.92C351.154 303.595 346.748 306.865 333.892 308.739C320.972 310.624 305.672 308.585 296.308 299.668C287.817 291.583 279.745 282.931 272.607 273.561C265.464 264.182 257.762 253.012 257.367 240.677C256.864 224.99 257.196 209.225 257.309 193.508C269.523 176.64 271.746 157.642 270.596 136.365C270.589 136.084 270.498 135.813 270.335 135.587C270.172 135.361 269.945 135.193 269.685 135.105C269.763 134.884 269.778 134.645 269.728 134.415C269.679 134.186 269.567 133.976 269.407 133.809C264.904 128.819 260.94 123.4 256.809 118.09C256.081 117.154 254.416 117.926 254.492 119.074C255.109 128.345 246.192 132.734 243.182 139.859C241.115 144.754 242.85 150.464 242.714 155.708C242.481 164.83 240.791 173.485 242.054 181.935C240.756 182.198 239.471 182.571 238.201 183.097C233.956 184.853 230.366 187.95 227.951 191.941C226.389 194.547 225.368 197.49 225.14 200.646C224.808 205.253 225.071 209.967 225.085 214.583C225.095 217.745 225.766 220.77 226.996 223.507C228.511 226.917 230.955 229.805 234.033 231.823C239.542 235.435 245.714 235.086 251.951 235.079C252.072 235.079 252.187 235.082 252.316 235.069C252.815 235.046 253.487 234.934 254.08 234.703C254.1 236.607 254.108 238.509 254.143 240.412C254.338 251.32 259.841 261.008 265.847 269.7C272.23 278.938 279.695 287.42 287.583 295.368C287.596 296.861 287.585 298.239 287.446 299.302C286.064 309.843 282.894 320.219 277.364 329.267C276.228 331.127 274.98 332.793 273.69 334.392C269.843 335.944 265.341 338.048 262.837 341.338C262.441 341.858 262.659 342.497 263.122 342.697C263.159 342.788 263.177 342.878 263.243 342.964C263.473 343.269 263.696 343.585 263.926 343.89C259.45 347.409 254.582 350.498 249.413 353.628C228.201 366.471 211.226 385.365 200.021 407.815C199.028 409.803 202.981 409.778 203.75 408.238C211.97 391.77 223.27 377.183 237.416 365.655C246.335 358.387 256.819 353.455 265.876 346.538C266.409 347.268 266.942 347.994 267.471 348.731C275.74 360.229 283.589 372.301 292.64 383.021C293.503 384.043 294.987 382.859 294.59 381.719C294.712 381.672 294.82 381.593 294.903 381.49C296.384 379.653 296.989 377.417 298.108 375.334C299.658 372.452 301.504 369.793 303.757 367.441C307.314 363.724 311.333 361.837 315.559 359.661C317.241 368.508 319.391 378.748 324.423 386.042C324.628 386.341 324.928 386.473 325.227 386.496C325.465 386.517 325.703 386.456 325.903 386.322C325.949 386.351 325.994 386.383 326.043 386.406C326.474 386.606 327.046 386.528 327.382 386.04C332.414 378.746 334.564 368.503 336.246 359.657C340.474 361.83 344.472 363.701 348.048 367.437C350.143 369.627 351.88 372.078 353.367 374.737C354.523 376.809 355.226 379.106 356.588 381.014L356.492 381.18C355.842 382.361 357.457 383.766 358.38 382.674C367.654 371.69 375.665 359.283 384.16 347.531C384.695 346.791 385.24 346.065 385.782 345.329C394.49 352.014 404.44 356.899 413.415 363.825C428.885 375.763 441.204 391.253 450.003 408.897C450.765 410.441 454.503 409 453.583 407.155ZM250.662 228.072V232.458C247.279 232.513 243.856 232.452 240.725 231.093C234.183 228.253 230.032 221.593 229.854 214.371C229.62 204.874 228.343 193.251 236.768 186.871C240.926 183.722 245.792 183.93 250.662 183.993V228.072ZM253.981 181.338C251.129 181.338 248.279 181.252 245.472 181.479C242.522 165.737 244.734 146.042 251.441 134.261C252.628 132.176 254.451 126.431 255.987 125.118C256.333 124.822 256.579 124.592 256.782 124.39C256.936 124.441 257.164 124.473 257.512 124.466C259.017 124.439 266.456 134.575 267.573 135.694C267.694 135.814 267.822 135.883 267.951 135.946C267.916 136.077 267.875 136.205 267.877 136.365C268.072 147.369 268.654 159.037 265.585 169.726C263.411 177.293 259.622 183.85 255.423 190.254V188.343V182.015C255.423 181.445 254.318 181.338 253.981 181.338ZM313.052 356.788C308.832 358.412 304.893 361.519 301.897 364.567C298.432 368.095 293.618 374.097 293.366 379.542C286.81 368.158 278.303 357.471 270.011 347.157C268.521 345.304 267.04 343.459 265.578 341.628C266.786 340.829 267.949 339.924 269.175 339.184C270.877 338.171 272.648 337.286 274.475 336.537C287.354 343.105 300.337 350.651 313.552 356.59C313.386 356.649 313.22 356.723 313.052 356.788ZM333.888 358.41L334.23 358.595L334.306 358.637C333.311 362.991 332.094 367.29 330.66 371.514C330.341 372.448 329.976 373.369 329.609 374.293C328.323 377.526 326.9 380.724 325.901 384.037C324.618 379.777 322.588 375.725 321.14 371.514C319.707 367.29 318.491 362.992 317.497 358.637L317.915 358.41C319.004 358.435 319.808 356.731 318.873 355.948C307.399 346.358 291.448 340.602 277.78 334.526C284.584 325.278 288.83 314.24 290.815 302.84C291.032 301.597 291.188 300.343 291.346 299.091C291.701 299.436 292.051 299.788 292.408 300.131C299.939 307.38 309.174 310.357 319.57 311.24C330.712 312.187 345.561 310.78 354.566 303.248C356.745 301.417 358.857 299.504 360.898 297.514C362.393 310.182 366.288 322.626 373.604 333.047C373.91 333.483 374.234 333.887 374.56 334.291C360.777 340.455 344.556 346.233 332.934 355.948C331.993 356.731 332.799 358.433 333.888 358.41ZM381.617 346.048C373.395 356.277 364.902 366.871 358.269 378.136C357.365 373.089 353.071 367.794 349.904 364.567C346.789 361.397 342.657 358.149 338.247 356.588C340.267 355.679 342.282 354.743 344.294 353.769C355.429 348.369 366.413 342.1 377.324 336.537C379.146 337.299 380.924 338.157 382.624 339.184C383.616 339.783 384.568 340.49 385.534 341.163C384.24 342.783 382.934 344.412 381.617 346.048ZM396.411 243.961C396.745 241.235 396.891 238.452 396.946 235.652C401.139 235.677 405.273 235.753 409.273 234.507C409.435 234.764 420.233 252.174 414.141 263.358C411.219 268.724 404.799 271.863 395.07 272.789L395.103 275.57C405.911 274.573 413.101 270.946 416.497 264.71C422.865 253.02 413.657 236.539 411.836 233.493C416.045 231.468 419.488 228.08 421.635 223.85C423 221.183 423.776 218.24 423.905 215.231C424.079 210.807 423.948 206.339 423.917 201.91C423.894 198.816 423.239 195.761 421.996 192.942C420.386 189.277 417.807 186.099 414.295 183.926C413.333 183.343 412.322 182.851 411.274 182.453C412.685 173.84 410.942 165.015 410.704 155.713C410.596 151.476 412.17 145.575 410.987 141.559C409.62 136.918 406.536 134.692 403.819 132.082C408.979 127.439 413.716 122.324 417.973 116.8C419.054 115.397 417.299 113.436 416.005 114.781C406.692 124.456 396.528 133.508 385.398 140.28L385.445 139.922L385.361 140.303C385.048 140.492 384.732 140.675 384.418 140.863C384.41 140.81 384.396 140.766 384.4 140.701C384.398 140.759 384.387 140.823 384.379 140.886C383.374 141.481 382.362 142.06 381.342 142.615C381.328 142.491 381.291 142.356 381.349 142.224C380.816 142.564 381.388 141.914 380.832 141.834C380.897 141.735 380.984 141.653 381.086 141.595C380.948 141.583 380.811 141.556 380.678 141.515L380.707 141.536L380.709 141.534L380.711 141.54C380.764 141.584 380.791 141.616 380.746 141.595L380.738 141.609L380.799 141.784C380.582 141.761 380.713 141.683 380.738 141.609L380.709 141.54L380.705 141.536L380.246 142.007C380.401 142.02 380.551 141.946 380.799 141.786C380.914 142.188 380.809 142.47 381.027 142.79L380.28 143.191C380.06 142.873 379.816 142.572 379.552 142.291C379.632 142.472 379.714 142.634 379.53 142.994C379.647 143.09 379.905 143.162 380.112 143.276C379.784 143.448 379.454 143.614 379.124 143.783C379.075 143.688 379.048 143.755 379.007 143.844C378.958 143.868 378.91 143.894 378.861 143.919C378.661 143.402 378.535 143.65 378.41 143.921C378.441 143.984 378.483 144.041 378.533 144.088C378.435 144.138 378.337 144.191 378.236 144.239L377.908 144.031C378.072 143.589 378.127 142.766 378.597 142.819C378.129 142.262 378.544 142.926 377.933 142.299C378.591 143.12 376.961 142.64 377.773 143.452C377.11 142.708 377.133 143.28 376.454 142.689C376.559 142.895 376.758 143.042 376.399 143.063L376.411 143.278L376.383 143.269L376.411 143.288C376.411 143.326 376.413 143.332 376.421 143.294C376.536 143.358 376.645 143.444 376.721 143.551C376.772 144.09 376.272 144.302 376.19 144.586C375.95 144.54 376.169 144.319 375.966 144.123L375.856 144.574C375.632 144.111 375.011 143.932 375.357 143.528L374.935 143.621C374.584 143.421 374.211 143.406 374.084 143.663C373.85 143.612 373.795 144.325 373.822 143.905L373.284 144.378L373.235 144.26C372.579 144.374 372.189 145.419 371.162 144.752C370.988 144.933 370.812 145.144 370.408 145.108L370.205 144.708C369.973 144.931 369.253 144.517 369.266 144.988C368.646 143.966 367.861 145.083 367.295 144.94L367.422 145.495C367.07 145.522 366.783 145.737 366.407 146.034L366.555 146.519C366.278 146.986 365.511 146.336 364.939 146.488C364.937 146.292 365.097 146.315 365.228 146.412C364.289 145.419 363.918 147.479 363.112 146.776C362.987 146.984 362.86 146.942 362.727 146.837L362.762 146.803L362.696 146.808L362.427 146.583C362.493 146.673 362.572 146.752 362.661 146.816C362.489 146.87 362.333 146.967 362.206 147.098L362.036 146.578L361.997 146.601C361.786 146.435 361.896 146.879 362.062 147.264C361.98 147.374 361.917 147.497 361.876 147.628C361.585 146.789 361.443 148.013 361.093 147.108C361.039 147.567 360.213 147.523 360.25 148.478C360.225 148.354 360.162 148.301 360.262 148.284C360.037 148.194 359.813 148.104 359.663 148.388L359.483 147.714L359.147 148.667C358.815 148.276 358.673 148.043 358.88 147.496C358.32 148.358 358.384 147.845 357.91 148.69L357.89 148.247C357.691 148.28 357.429 148.899 357.269 148.545C356.735 147.742 355.017 148.623 353.816 147.929C354.111 149.231 353.248 147.348 353.252 148.36C353.17 148.053 353.002 147.878 353.176 147.611C352.6 147.916 352.278 147.125 351.899 147.982C351.823 147.672 352.011 147.529 351.946 147.346C351.901 147.414 351.767 147.615 351.702 147.432C351.636 147.249 351.78 147.174 351.868 147.039C351.275 147.094 351.234 148.047 351.208 148.939C350.89 148.518 350.74 148.579 350.523 149.166C350.412 148.874 350.23 148.571 350.605 148.463C350.389 148.421 349.311 148.045 349.286 148.76C349.221 148.579 348.989 148.709 348.934 148.791C348.456 148.751 348.415 148.688 347.945 148.758L348.075 148.874C347.872 149.738 347.679 149.069 347.298 149.176L347.31 149.088C346.461 148.465 346.922 149.408 346.094 148.646L346.116 149.187C345.983 150.336 345.386 148.459 344.87 148.869L345.032 149.187C344.732 149.566 344.365 147.571 344.111 147.411C344.06 147.308 344.214 147.256 344.3 147.188C343.646 146.465 344.162 147.885 343.625 148.015C343.555 147.63 343.818 147.06 343.473 146.968C343.328 146.652 342.352 148.135 341.932 147.378C342.009 147.676 342.092 147.973 341.825 148.177C341.435 148.257 340.923 147.014 340.486 147.912C340.451 147.84 340.436 147.759 340.443 147.679C340.131 147.902 339.465 148.015 339.233 148.48C339.205 146.606 337.326 149.158 337.564 147.46L336.672 147.443L336.721 147.273C336.178 147.092 335.918 147.475 335.653 147.857C335.54 147.727 335.661 147.58 335.688 147.493C334.921 147.052 334.835 147.115 333.992 147.874L334.019 147.317C333.769 147.613 332.994 146.324 332.075 146.801C332.099 146.713 332.147 146.634 332.213 146.572C331.175 147.054 330.404 144.685 329.633 146.61L328.926 146.993C329.664 147.283 328.612 147.832 328.854 148.217C328.518 148.278 328.202 147.481 328.602 147.445L328.637 147.554C329.016 146.547 327.761 147.02 327.954 146.322C326.418 146.143 325.133 145.173 323.749 144.841L323.681 145.67L323.205 145.514C323.131 145.301 323.215 144.855 323.554 144.965C323.502 144.475 322.861 145.211 322.799 145.381C322.213 144.908 323.341 144.517 323.135 144.451L322.836 144.447L322.871 144.555C322.545 144.826 322.422 145.165 322.014 145.032C321.799 144.813 322.028 144.515 321.934 144.46C321.952 144.403 321.926 144.369 321.782 144.401L321.194 144.191L321.241 144.874C320.872 145.118 320.677 144.691 320.736 145.474C320.669 144.275 318.59 144.475 318.448 144.071C317.915 144.42 317.544 144.313 317.099 144.134C317.169 144.294 316.992 145.005 316.619 144.813C317.279 143.421 316.107 144.001 316.168 142.878C316.201 143.646 314.993 142.703 315.075 143.804C314.79 143.587 315.256 143.265 315.135 142.853C314.144 143.164 313.56 141.969 312.531 141.86C312.438 142.041 312.486 142.373 312.166 142.586L312.041 141.504C311.817 141.532 311.421 142.51 311.35 141.752C311.333 141.925 311.307 142.184 311.155 142.198C309.689 140.682 306.991 141.607 305.959 139.234C306.031 139.68 305.848 139.651 305.656 139.588C305.721 139.695 305.533 139.922 305.408 140.139L305.235 140.057L304.916 139.297C304.52 139.794 304.214 139.314 303.894 139.426C295.619 135.597 287.188 132.433 277.026 132.622C277.001 132.572 276.993 132.521 276.958 132.471C273.848 127.969 269.689 123.942 266.31 119.581C263.099 115.441 259.604 111.699 255.277 108.831C266.191 83.0546 300.169 96.043 319.914 90.6659C350.633 82.2994 378.004 61.1171 406.144 94.9111C406.827 95.7316 408.113 94.6734 407.586 93.7709C388.447 61.035 355.14 74.8102 326.964 84.4999C303.374 92.6118 264.43 78.9377 252.944 108.497C252.828 108.637 252.741 108.799 252.687 108.974C252.633 109.148 252.614 109.333 252.63 109.515C252.63 109.67 252.67 109.823 252.744 109.958C252.818 110.093 252.925 110.207 253.054 110.287C253.102 110.329 253.128 110.38 253.186 110.42C258.021 113.647 261.556 118.185 265.103 122.773C267.967 126.479 271.014 131.476 275.146 133.836C275.154 134.415 275.529 134.989 276.271 135.018C286.076 135.416 294.817 138.227 303.255 141.647C303.197 141.919 303.099 142.18 302.966 142.421C303.788 141.704 303.314 144.121 304.569 143.114C304.608 143.366 304.294 143.385 304.255 143.642C304.624 143.282 304.856 143.265 305.121 143.589L305.03 143.677C306.082 143.945 306.306 144.548 307.327 145.213L307.464 144.691C307.679 144.841 307.661 145.013 307.72 145.177C308.336 144.525 307.052 144.897 307.677 144.163C307.552 145.278 309.385 144.767 309.113 145.989C309.488 146.126 309.248 145.377 309.621 145.514L309.59 145.859L309.855 145.491C310.074 145.642 310.035 146.073 309.935 146.341C309.888 146.288 309.732 146.355 309.658 146.355C309.826 146.839 310.626 146.522 310.687 146.677L310.398 146.372C311.559 146.402 312.674 147.205 313.925 146.875L313.937 146.614C314.868 146.404 314.448 147.077 315.377 147.1L315.325 147.148C315.434 147.067 315.556 147.009 315.686 146.976L316.008 147.115C315.932 147.348 316.226 147.677 315.895 147.874C316.539 147.716 316.588 147.651 316.759 147.437L317.685 147.83C317.677 147.834 317.679 147.841 317.671 147.845C317.936 148.329 318.274 148.289 318.573 148.207L319.256 148.491C319.264 148.56 319.281 148.611 319.281 148.705C319.33 148.642 319.348 148.596 319.381 148.541C320.236 148.897 321.093 149.244 321.952 149.585C321.932 149.631 321.92 149.665 321.887 149.726C321.922 149.667 321.946 149.639 321.977 149.595C322.385 149.757 322.795 149.921 323.205 150.079L323.162 150.136C323.191 150.113 323.213 150.108 323.238 150.092L323.773 150.296C323.913 150.487 324.048 150.691 324.271 150.584C324.023 150.533 323.935 150.449 323.911 150.348L324.932 150.729C325.03 150.855 325.169 150.95 325.411 150.95C325.356 150.962 325.288 150.91 325.227 150.84L325.686 151.013L325.698 151.038L325.744 151.034C335.489 154.568 345.725 156.794 357.595 155C367.123 153.561 376.173 150.325 384.57 145.777C385.005 160.425 383.299 177.663 393.399 188.888V238.016C393.399 248.945 389.017 259.074 382.837 268.316L385.929 268.011C391.031 260.667 395.353 252.566 396.411 243.961ZM321.821 144.632L321.874 144.79C321.612 144.891 321.715 144.769 321.821 144.632ZM341.339 151.937L341.175 151.926C341.263 151.817 341.351 151.707 341.409 151.646C341.558 151.844 341.374 151.823 341.339 151.937ZM341.396 151.941L341.788 151.653C341.823 151.754 341.823 151.864 341.79 151.966L341.396 151.941ZM347.138 152.124C347.153 152.06 347.182 152 347.223 151.949C347.264 151.898 347.315 151.857 347.373 151.829C347.443 151.381 347.697 151.808 347.997 152.099C347.71 152.107 347.425 152.12 347.138 152.124ZM349.475 152.056C349.563 151.945 349.668 151.802 349.834 151.568L350.287 152.006C350.016 152.021 349.748 152.044 349.475 152.056ZM351.091 150.923L350.859 150.483C350.713 150.918 350.574 151.402 350.611 151.821C350.655 151.734 350.727 151.665 350.814 151.625C350.775 151.743 350.75 151.85 350.771 151.922C350.793 151.998 350.857 151.838 350.957 151.655L351.017 151.951L350.64 151.979C350.629 151.926 350.615 151.876 350.611 151.821C350.587 151.871 350.581 151.928 350.595 151.983L350.307 152.004C349.986 151.476 350.414 150.851 350.785 150.336L350.48 149.742L351.087 149.353C351.163 149.471 351.107 149.717 351.011 150.016L351.119 149.843C351.347 150.106 351.245 150.521 351.091 150.923ZM351.302 151.255C351.409 151.211 351.53 151.228 351.669 151.366C351.589 151.545 351.456 151.459 351.302 151.255ZM353.738 151.699C353.681 151.684 353.62 151.692 353.568 151.72C353.207 151.76 352.848 151.808 352.487 151.842C352.879 151.192 353.291 150.533 353.924 150.298C353.756 150.801 353.873 151.154 353.926 151.676C353.864 151.684 353.801 151.692 353.738 151.699ZM354.987 151.549C355.036 151.523 355.08 151.488 355.118 151.446C355.122 151.476 355.12 151.503 355.122 151.533L354.987 151.549ZM355.345 151.505C355.434 151.339 355.54 151.263 355.696 151.459L355.345 151.505ZM358.191 151.047C358.234 150.942 358.256 150.83 358.255 150.716C358.261 150.754 358.267 150.88 358.271 151.034L358.191 151.047ZM358.95 150.901L358.874 150.609L358.847 150.923C358.747 150.941 358.649 150.967 358.548 150.986L359.116 148.77C359.112 149.248 359.331 150.081 359.417 150.803C359.26 150.834 359.106 150.872 358.95 150.901ZM359.67 150.75C359.676 150.725 359.67 150.674 359.682 150.666L359.727 150.737C359.708 150.742 359.689 150.746 359.67 150.75ZM360.629 150.548C360.662 150.472 360.701 150.42 360.752 150.422C360.75 150.439 360.758 150.491 360.76 150.519L360.629 150.548ZM362.844 150.018C362.93 149.755 363.047 149.549 363.274 149.53C363.264 149.655 363.264 149.781 363.276 149.906L362.844 150.018ZM364.644 149.54C364.388 149.614 364.131 149.686 363.873 149.755C363.967 148.836 364.127 147.809 364.429 147.456L364.626 147.796L365.015 147.302C364.936 148.055 364.812 148.803 364.644 149.54ZM367.986 148.499L367.748 147.632L367.908 148.524C367.74 148.581 367.574 148.642 367.406 148.697C367.223 148 367.096 147.363 367.096 147.081C367.162 147.13 368.099 147.744 368.39 148.127C368.433 148.188 368.439 148.266 368.466 148.333L367.986 148.499ZM370.133 147.748C370.174 147.632 370.215 147.515 370.266 147.456C370.278 147.525 370.315 147.594 370.348 147.664L370.133 147.748ZM374.742 144.003V144.031C374.433 143.896 374.545 143.953 374.742 144.003ZM372.76 146.724C372.839 146.324 372.983 145.956 373.209 145.691C373.649 145.325 373.647 146.208 373.692 146.057C374.744 145.939 373.934 144.264 374.992 144.687C375.241 144.913 375.411 145.216 375.478 145.55C374.576 145.958 373.672 146.349 372.76 146.724ZM377.631 144.536L377.611 144.544C377.371 144.66 377.129 144.769 376.889 144.885C377.035 144.47 377.186 144.008 377.658 144.081L377.867 144.424C377.789 144.462 377.709 144.496 377.631 144.536ZM419.078 201.969C419.24 211.629 420.661 223.549 411.393 229.475C407.42 232.016 402.849 231.941 398.342 231.869V188.846V184.542C401.892 184.481 405.482 184.466 408.789 185.901C415.043 188.615 418.963 195.092 419.078 201.969ZM386.823 144.515C392.113 141.443 397.12 137.884 401.783 133.882C401.879 134.076 401.951 134.215 401.98 134.263C408.836 145.434 410.795 165.726 407.914 181.435C404.102 180.637 400.137 180.774 396.101 180.774C395.193 180.774 393.786 181.502 393.549 182.535C386.938 171.225 389.044 158.077 386.823 144.515Z" fill="#323232"/>
<path d="M288.213 192.593C279.909 192.593 279.896 205.833 288.213 205.833C296.515 205.833 296.529 192.593 288.213 192.593ZM363.785 192.593C355.481 192.593 355.468 205.833 363.785 205.833C372.087 205.833 372.101 192.593 363.785 192.593ZM316.761 219.602C314.122 221.081 312.797 221.765 312.178 225.158C310.671 233.402 317.61 241.161 325.165 242.005C327.464 242.261 327.486 238.918 325.67 238.18C321.751 236.587 311.514 229.942 317.837 223.608C318.501 222.941 320.65 222.619 321.571 222.137C323.853 220.944 325.616 219.552 326.82 217.21C330.039 210.947 328.774 199.968 325.139 194.265C324.464 193.209 322.686 193.554 322.721 194.936C322.824 198.822 323.9 202.389 324.042 206.304C324.306 213.581 322.814 216.211 316.761 219.602ZM303.292 258.689C315.889 268.07 335.897 268.181 348.692 258.786C349.918 257.885 349.157 256.118 347.693 256.354C341.136 257.414 335.089 260.34 328.415 261.104C320.021 262.063 312.084 260.578 304.889 255.889C303.138 254.747 301.676 257.486 303.292 258.689ZM324.513 272.769C322.186 272.891 319.826 272.233 317.548 272.679C316.404 272.902 316.474 274.419 317.253 274.993C319.324 276.518 322.529 276.495 324.991 276.43C327.283 276.369 330.406 276.333 331.952 274.389C332.541 273.649 332.323 272.656 331.421 272.327C329.276 271.545 326.742 272.654 324.513 272.769ZM393.788 95.2557C393.151 94.4206 391.691 95.3252 392.044 96.2971C393.331 99.846 396.651 101.131 400.059 101.948C405.386 103.223 411.924 104.215 417.227 102.606C418.016 102.366 418.123 101.03 417.227 100.854C409.855 99.4043 399.027 102.11 393.788 95.2557ZM397.783 110.506C396.798 110.623 396.403 112.14 397.53 112.418C404.371 114.103 415.014 112.165 420.21 107.064C421.131 106.159 420.187 104.436 418.949 104.84C415.613 105.926 412.628 107.853 409.228 108.865C405.441 109.994 401.656 110.041 397.783 110.506Z" fill="#323232"/>
<path d="M225.14 200.648C225.368 197.492 226.389 194.547 227.951 191.942C223.153 196.36 220.269 202.028 220.269 208.21C220.269 213.958 222.791 219.242 226.996 223.511C225.74 220.712 225.088 217.668 225.085 214.587C225.069 209.969 224.808 205.255 225.14 200.648ZM236.768 186.873C228.343 193.253 229.62 204.874 229.854 214.372C230.033 221.594 234.183 228.255 240.726 231.095C243.856 232.454 247.279 232.513 250.662 232.46V228.074V183.997C245.79 183.929 240.926 183.723 236.768 186.873ZM423.905 215.228C423.775 218.238 423 221.18 421.635 223.847C426.046 219.524 428.697 214.107 428.697 208.208C428.697 202.476 426.187 197.202 421.998 192.94C423.218 195.717 423.899 198.763 423.919 201.908C423.948 206.336 424.079 210.804 423.905 215.228ZM398.343 184.54V231.867C402.849 231.938 407.42 232.014 411.393 229.473C420.663 223.547 419.24 211.629 419.078 201.967C418.964 195.088 415.043 188.61 408.789 185.896C405.482 184.466 401.892 184.479 398.343 184.54ZM395.177 281.788L395.103 275.569L395.07 272.788L395.004 267.108L385.923 268.004L382.831 268.307L363.785 270.186L367.613 281.788H375.202H395.177Z" fill="#F4910F"/>
<path d="M201.165 346.3C201.081 345.955 200.644 346.145 200.744 346.136C200.709 346.34 201.095 346.269 201.165 346.3ZM200.035 342.798L199.651 342.295L199.879 342.737L200.035 342.798ZM199.61 341.369L200.137 341.626C200.055 340.938 199.707 340.044 199.891 339.56C199.235 339.859 199.994 340.711 199.76 341.277L199.61 341.369ZM201.298 338.193C201.294 338.084 201.299 337.976 201.314 337.869C201.06 337.972 201.097 337.503 201.234 338.264C201.263 338.226 201.279 338.216 201.298 338.193ZM201.298 338.193C201.316 338.527 201.513 337.974 201.298 338.193V338.193ZM201.679 336.752C201.556 336.299 201.404 336.392 201.156 336.648L201.384 337.09C201.534 336.998 201.569 336.604 201.679 336.752ZM200.679 336.228L200.775 336.457C200.839 336.417 200.861 336.356 200.679 336.228ZM200.847 336.68C200.652 336.64 200.839 336.737 200.976 336.943L200.773 336.459C200.668 336.52 200.455 336.526 200.847 336.68ZM200.878 337.216C200.734 337.463 200.644 337.782 200.418 337.338C200.504 338.182 200.966 338.058 200.878 337.216ZM201.503 333.903C201.363 333.876 201.13 334.05 200.951 334.082L201.111 334.408C201.208 334.242 201.296 333.924 201.503 333.903ZM200.951 334.082L200.713 333.594C200.685 334.029 200.798 334.109 200.951 334.082ZM199.951 336.148L200.453 336.949L199.945 335.994L199.951 336.148ZM201.359 331.827L201.523 332.043L201.847 332.319L201.359 331.827ZM202.087 330.748C202.04 330.413 201.81 330.125 201.605 329.868C201.72 330.142 201.69 330.434 201.47 330.811C201.737 331.015 201.923 330.531 202.087 330.748ZM201.183 332.384L200.789 332.576L200.783 332.767C200.869 332.729 201.089 332.656 201.183 332.384ZM200.777 332.58L200.789 332.574L200.812 332.159C200.803 332.3 200.792 332.44 200.777 332.58Z" fill="#323232"/>
<path d="M200.31 334.874C200.101 334.598 199.873 334.064 199.559 334.529V333.384C199.707 333.214 199.844 333.102 199.871 333.138C199.756 333.176 199.66 333.218 199.559 333.258V331.272C199.604 331.278 199.65 331.283 199.689 331.297L199.559 330.738V327.346C199.947 327.262 200.359 327.1 200.665 326.903C200.507 326.888 200.359 326.886 200.146 326.375C199.992 326.513 199.795 327.113 199.559 327.174V326.322C199.598 326.284 199.637 326.25 199.672 326.191C199.631 326.217 199.596 326.217 199.559 326.223V324.622L199.611 324.866C199.609 324.845 199.607 324.826 199.611 324.805C200.131 324.908 199.961 324.538 199.789 324.17C199.639 324.185 199.584 324.252 199.557 324.34V323.774L199.857 323.389C200.14 323.905 200.736 324.54 200.556 325.178C201.114 324.889 200.492 325.03 201.144 324.578C200.334 324.969 201.183 322.945 200.33 323.575C201.087 323.112 200.652 322.769 201.298 322.163C201.112 322.182 200.941 322.377 201.036 321.841C200.977 321.808 200.922 321.769 200.872 321.723C200.876 321.706 200.88 321.702 200.886 321.687L200.863 321.717C200.835 321.694 200.829 321.692 200.855 321.727C200.789 321.845 200.691 321.94 200.572 322.001C200.146 321.734 200.162 320.882 199.941 320.594C200.031 320.276 200.154 320.726 200.353 320.554L200.023 320.122C200.435 320.08 200.71 319.279 200.952 320.03L200.972 319.357C201.204 318.959 201.298 318.414 201.126 318.077C201.216 317.76 200.671 317.274 200.993 317.552L200.738 316.493L200.841 316.483C200.896 315.439 200.162 314.333 200.911 313.142C200.808 312.791 200.681 312.427 200.8 311.84L201.157 311.726C201.034 311.276 201.518 310.374 201.146 310.178C202.108 309.694 201.362 307.99 201.534 307.197L201.068 307.166C201.095 306.619 200.964 306.095 200.779 305.417L200.367 305.457C200.031 304.872 200.665 303.955 200.624 303.032C200.781 303.095 200.738 303.328 200.644 303.495C201.577 302.392 199.974 301.164 200.654 300.162C200.505 299.912 200.556 299.731 200.66 299.556C200.662 299.578 200.669 299.599 200.681 299.617C200.686 299.583 200.688 299.549 200.687 299.514C200.759 299.405 200.841 299.291 200.906 299.167C200.818 299.252 200.744 299.35 200.685 299.458C200.667 299.194 200.613 298.935 200.523 298.688L200.966 298.568C200.96 298.545 200.962 298.526 200.954 298.502C201.118 298.223 200.745 298.275 200.41 298.425C200.343 298.284 200.253 298.156 200.144 298.046C200.859 297.819 199.906 297.295 200.667 296.986C200.296 296.792 200.39 295.547 199.609 295.391C199.711 295.381 199.76 295.296 199.766 295.452C199.857 295.134 199.945 294.815 199.725 294.529L200.289 294.394L199.557 293.717V293.67C199.887 293.271 200.088 293.108 200.511 293.519C199.846 292.503 200.263 292.694 199.604 291.829L199.967 291.872C199.955 291.562 199.467 291.068 199.769 290.883C200.462 290.195 199.873 287.468 200.519 285.699C199.447 286.04 201.001 284.877 200.17 284.805C200.425 284.702 200.568 284.456 200.786 284.744C200.539 283.84 201.191 283.387 200.492 282.76C200.747 282.657 200.863 282.954 201.013 282.863C200.958 282.79 200.794 282.575 200.945 282.483C201.097 282.39 201.157 282.615 201.267 282.758C201.226 281.835 200.447 281.74 199.715 281.671C200.056 281.212 200.01 280.979 199.555 280.65V280.617C199.789 280.455 200.027 280.215 200.111 280.772C200.146 280.45 200.466 278.801 199.879 278.767C200.029 278.667 199.924 278.317 199.857 278.231C199.894 277.507 199.947 277.444 199.894 276.733L199.797 276.931C199.711 276.899 199.63 276.853 199.557 276.794V275.997C199.567 275.926 199.567 275.855 199.557 275.784V275.765L199.629 275.782C200.144 274.47 199.387 275.214 199.974 273.918L199.557 273.984V273.022C199.73 272.715 199.873 272.381 199.732 272.088L199.557 272.275V271.989C199.887 271.592 200.802 271.108 200.892 270.801C200.974 270.71 201.023 270.944 201.085 271.07C201.647 269.991 200.509 270.929 200.375 270.123C200.687 269.976 201.167 270.317 201.226 269.774C201.479 269.505 200.22 268.198 200.818 267.462C200.578 267.624 200.339 267.786 200.158 267.412C200.074 266.837 201.068 265.863 200.312 265.344C200.378 265.27 200.441 265.243 200.5 265.241C200.306 264.801 200.181 263.816 199.771 263.551C201.294 263.15 199.037 260.825 200.441 260.838L200.369 259.489L200.513 259.525C200.607 258.662 200.271 258.357 199.937 258.054C200.033 257.855 200.164 258.002 200.236 258.019C200.523 256.761 200.462 256.634 199.764 255.578L200.22 255.469C199.955 255.183 200.937 253.649 200.41 252.414C200.494 252.43 200.567 252.479 200.615 252.551C200.084 251.16 201.885 249.227 200.228 248.714L199.822 247.797C199.777 248.198 199.678 248.297 199.559 248.285V247.563C200.08 247.422 199.705 246.095 200.23 246.124C200.191 243.789 200.677 241.515 200.718 239.329L200.045 239.58L200.086 238.818C200.242 238.618 200.613 238.551 200.585 239.094C200.966 238.807 200.267 238.181 200.121 238.164C200.396 237.099 200.904 238.582 200.921 238.254L200.872 237.81L200.794 237.909C200.519 237.549 200.228 237.516 200.263 236.862C200.398 236.449 200.679 236.651 200.703 236.487C200.753 236.487 200.775 236.432 200.724 236.237L200.783 235.275L200.252 235.658C199.992 235.231 200.283 234.754 199.68 235.197C200.609 234.55 200.021 231.615 200.31 231.215C199.924 230.618 199.933 230.029 199.982 229.299C199.92 229.398 199.723 229.461 199.561 229.41V228.968C200.47 228.985 199.947 227.773 200.771 227.302C200.183 227.755 200.63 225.514 199.795 226.225C199.896 225.701 200.257 226.194 200.548 225.796C200.074 224.546 200.863 223.042 200.706 221.498C200.544 221.473 200.298 221.732 200.056 221.399L200.865 220.585C200.788 220.28 199.935 220.301 200.496 219.746C200.361 219.824 200.156 219.941 200.105 219.737C200.898 216.714 199.475 213.552 200.96 210.485C200.646 210.9 200.615 210.624 200.605 210.306C200.529 210.513 200.207 210.3 199.986 210.34L200.597 209.055C199.99 208.819 200.558 207.675 199.978 207.54L200.082 207.948C199.984 207.87 199.864 207.828 199.74 207.828L199.561 219.514V212.566V193.624C199.561 193.376 198.973 193.289 198.86 193.289H93.8997C93.1657 193.289 90.6498 193.559 90.6908 194.699L92.1938 237.301L96.0814 235.595L94.6501 195.033H174.352C180.792 195.033 188.94 193.643 195.268 195.033C195.452 195.073 195.586 195.088 195.698 195.092C195.628 195.297 195.611 195.518 195.649 195.732C195.869 197.676 195.649 199.786 195.649 201.738V346.303H186.668L140.175 241.157L132.548 223.907C132.084 222.861 130.606 223.042 129.772 223.431L34.1877 267.923C33.7755 268.114 32.7421 268.832 33.0538 269.473L59.1494 323.232L91.349 389.564L99.5855 406.53C100.084 407.559 101.494 407.41 102.362 407.006L193.014 364.809C193.835 364.485 194.452 363.903 194.163 363.251L187.439 348.045H196.353C196.381 348.045 196.422 348.039 196.457 348.034C197.599 348.06 199.563 347.513 199.563 346.635V334.59C199.807 334.728 199.996 334.463 200.31 334.874ZM200.714 318.826L200.693 318.808C200.866 318.435 200.796 318.568 200.714 318.826ZM200.539 236.392L200.423 236.542C200.295 236.201 200.41 236.298 200.539 236.392ZM199.559 301.433C199.706 301.574 199.827 301.741 199.914 301.927L199.611 302.112L199.953 302.853C199.846 302.79 199.693 302.683 199.557 302.592L199.559 301.433ZM199.559 305.958C199.674 305.979 199.769 306.006 199.836 306.04C199.818 306.072 199.701 306.278 199.559 306.513V305.958ZM199.559 315.299C199.615 315.418 199.684 315.526 199.728 315.654C199.824 316.073 199.695 316.161 199.559 316.163V315.299ZM199.559 317.167C199.914 317.714 200.517 317.884 200.123 318.791C200.052 318.87 199.964 318.931 199.867 318.969C199.769 319.007 199.663 319.02 199.559 319.009V317.167ZM199.559 322.689V322.628V321.46C199.816 321.904 200.082 322.396 199.894 322.992L199.559 323.072V322.689ZM189.875 363.467L102.792 404.002L45.1984 285.354L37.3679 269.223L129.286 226.438L182.625 347.065C185.04 352.534 187.458 358.002 189.875 363.467Z" fill="#323232"/>
<path d="M200.564 333.607L200.291 333.052L200.201 333.569C200.303 333.559 200.455 333.466 200.564 333.607ZM200.166 332.797L200.291 333.052L200.324 332.86L200.166 332.797ZM200.937 330.319C200.767 330.096 200.752 329.85 200.726 329.574C200.647 329.865 200.607 330.165 200.607 330.466C200.728 330.508 200.949 330.637 200.937 330.319ZM200.734 326.856C200.713 326.871 200.685 326.884 200.662 326.9L200.73 326.911L200.734 326.856Z" fill="#323232"/>
<path d="M200.673 330.998C200.631 330.824 200.609 330.645 200.607 330.466C200.552 330.447 200.515 330.443 200.533 330.514C200.455 330.737 200.552 330.872 200.673 330.998ZM200.909 329.058C201.034 328.945 201.226 328.715 201.126 328.673C201.042 328.794 200.969 328.923 200.909 329.058ZM200.913 331.292L200.931 331.326C201.013 331.255 200.972 331.263 200.913 331.292ZM200.913 331.292C200.855 331.177 200.759 331.088 200.673 330.998C200.701 331.127 200.745 331.251 200.804 331.368C200.837 331.338 200.873 331.313 200.913 331.292ZM200.624 327.874L200.669 328.084C200.732 327.844 200.878 327.674 201.165 327.359C200.989 327.007 200.853 326.936 200.732 326.91L200.679 327.945L200.624 327.874Z" fill="#323232"/>
<path d="M200.668 329.029C200.273 328.865 200.105 328.358 199.676 328.667C199.703 329.283 200.006 329.1 200.176 329.469C200.08 328.471 200.396 329.755 200.623 329.035C200.691 329.231 200.709 329.408 200.726 329.574C200.773 329.395 200.834 329.222 200.908 329.058L200.884 329.081V329.086H200.88C200.83 329.128 200.8 329.142 200.828 329.094C200.824 329.09 200.822 329.079 200.82 329.073C200.768 329.065 200.717 329.05 200.668 329.029C200.752 328.741 200.773 328.985 200.818 329.075C200.839 329.079 200.857 329.086 200.878 329.088L200.882 329.084L200.666 328.086C200.613 328.295 200.623 328.56 200.668 329.029ZM200.931 326.761L201.349 326.873L200.761 326.391L200.931 326.761ZM200.884 325.682L201.247 325.722L201.029 325.436L200.884 325.682ZM200.904 299.16C201.245 298.805 201.772 298.409 201.364 298.451L200.966 298.559C200.997 298.658 201.007 298.763 200.997 298.866C200.986 298.97 200.955 299.07 200.904 299.16ZM200.763 314.621C200.892 314.384 200.974 314.124 201.005 313.855C200.775 314.225 200.431 314.522 200.763 314.621ZM200.744 265.44C200.673 265.291 200.59 265.225 200.502 265.23C200.57 265.385 200.646 265.471 200.744 265.44ZM201.007 312.969C200.966 313.024 200.945 313.076 200.912 313.131C200.991 313.363 201.023 313.61 201.007 313.855C201.177 313.583 201.281 313.27 201.007 312.969ZM200.572 209.877C200.597 209.978 200.597 210.142 200.603 210.295C200.629 210.222 200.627 210.093 200.572 209.877ZM201.068 321.338C201.093 321.567 201.111 321.373 201.068 321.338V321.338ZM201.074 321.634C201.056 321.714 201.046 321.775 201.035 321.834C201.101 321.864 201.144 321.838 201.074 321.634ZM201.005 321.388C201.031 321.344 201.054 321.325 201.068 321.338C201.058 321.231 201.052 321.125 201.048 321.018C201.052 321.143 201.038 321.268 201.005 321.388ZM201.148 323.212C201.169 323.452 201.072 323.538 201.001 323.658C201.105 323.648 201.255 323.553 201.261 323.709L201.148 323.212ZM199.623 324.941C199.643 325.047 199.646 325.156 199.631 325.263C199.84 325.305 199.676 325.133 199.623 324.941ZM200.765 320.583C200.668 320.747 201.24 320.688 201.089 320.78C201.562 320.965 200.517 319.68 200.765 320.583ZM201.079 208.185L201.275 207.725L200.96 208.021L201.079 208.185ZM200.984 207.19L200.445 206.91C200.472 207.016 200.523 207.218 200.388 207.297L200.984 207.19Z" fill="#323232"/>
<path d="M162.779 202.449H187.37V221.292H162.779V202.449Z" fill="#F4910F"/>
<path d="M129.284 226.439L37.3659 269.224L45.1965 285.356L102.79 404.003L189.873 363.469L182.621 347.068L129.284 226.439ZM109.227 264.182L101.64 247.022L124.035 236.598L131.623 253.758L109.227 264.182Z" fill="white"/>
<path d="M34.1836 267.912L129.768 223.42C130.602 223.031 132.082 222.85 132.544 223.896L140.171 241.146L186.664 346.292H195.645V299.611V226.814V201.727C195.645 199.773 195.865 197.665 195.645 195.721C195.608 195.507 195.625 195.287 195.694 195.081C195.549 195.075 195.405 195.055 195.264 195.022C188.934 193.632 180.786 195.022 174.348 195.022H94.6461L96.0773 235.584L92.1897 237.29L90.6868 194.688C90.6458 193.55 93.1637 193.278 93.8957 193.278H198.856C198.969 193.278 199.557 193.363 199.557 193.613V219.503L199.736 207.817L200 190.523L89.0403 188.061L91.833 237.444L29.2729 264.906L59.1412 323.221L33.0457 269.462C32.7381 268.821 33.7715 268.105 34.1836 267.912ZM162.779 202.449H187.37V221.291H162.779V202.449Z" fill="white"/>
<path d="M101.632 247.058L124.027 236.636L131.613 253.796L109.219 264.218L101.632 247.058Z" fill="#F4910F"/>
</svg>
