<svg width="126" height="24" viewBox="0 0 126 24" fill="none" xmlns="http://www.w3.org/2000/svg">
<path d="M39.5925 18L35.0005 12.912V18H33.5445V6.848H35.0005V12.016L39.6085 6.848H41.4485L36.3925 12.432L41.4965 18H39.5925ZM46.9466 18.144C46.1253 18.144 45.3786 17.9573 44.7066 17.584C44.0453 17.2107 43.5226 16.6827 43.1386 16C42.7653 15.3067 42.5786 14.5067 42.5786 13.6C42.5786 12.704 42.7706 11.9147 43.1546 11.232C43.5493 10.5387 44.0826 10.0107 44.7546 9.648C45.4266 9.27467 46.1786 9.088 47.0106 9.088C47.8426 9.088 48.5946 9.27467 49.2666 9.648C49.9386 10.0107 50.4666 10.5333 50.8506 11.216C51.2453 11.8987 51.4426 12.6933 51.4426 13.6C51.4426 14.5067 51.24 15.3067 50.8346 16C50.44 16.6827 49.9013 17.2107 49.2186 17.584C48.536 17.9573 47.7786 18.144 46.9466 18.144ZM46.9466 16.864C47.4693 16.864 47.96 16.7413 48.4186 16.496C48.8773 16.2507 49.2453 15.8827 49.5226 15.392C49.8106 14.9013 49.9546 14.304 49.9546 13.6C49.9546 12.896 49.816 12.2987 49.5386 11.808C49.2613 11.3173 48.8986 10.9547 48.4506 10.72C48.0026 10.4747 47.5173 10.352 46.9946 10.352C46.4613 10.352 45.9706 10.4747 45.5226 10.72C45.0853 10.9547 44.7333 11.3173 44.4666 11.808C44.2 12.2987 44.0666 12.896 44.0666 13.6C44.0666 14.3147 44.1946 14.9173 44.4506 15.408C44.7173 15.8987 45.0693 16.2667 45.5066 16.512C45.944 16.7467 46.424 16.864 46.9466 16.864ZM63.901 9.072C64.5837 9.072 65.1917 9.216 65.725 9.504C66.2583 9.78133 66.6797 10.2027 66.989 10.768C67.2983 11.3333 67.453 12.0213 67.453 12.832V18H66.013V13.04C66.013 12.1653 65.7943 11.4987 65.357 11.04C64.9303 10.5707 64.349 10.336 63.613 10.336C62.8557 10.336 62.253 10.5813 61.805 11.072C61.357 11.552 61.133 12.2507 61.133 13.168V18H59.693V13.04C59.693 12.1653 59.4743 11.4987 59.037 11.04C58.6103 10.5707 58.029 10.336 57.293 10.336C56.5357 10.336 55.933 10.5813 55.485 11.072C55.037 11.552 54.813 12.2507 54.813 13.168V18H53.357V9.232H54.813V10.496C55.101 10.0373 55.485 9.68533 55.965 9.44C56.4557 9.19467 56.9943 9.072 57.581 9.072C58.317 9.072 58.9677 9.23733 59.533 9.568C60.0983 9.89867 60.5197 10.384 60.797 11.024C61.0423 10.4053 61.4477 9.92533 62.013 9.584C62.5783 9.24267 63.2077 9.072 63.901 9.072ZM71.2974 10.848C71.5854 10.3467 72.012 9.93067 72.5774 9.6C73.1534 9.25867 73.82 9.088 74.5774 9.088C75.356 9.088 76.06 9.27467 76.6894 9.648C77.3294 10.0213 77.8307 10.5493 78.1934 11.232C78.556 11.904 78.7374 12.688 78.7374 13.584C78.7374 14.4693 78.556 15.2587 78.1934 15.952C77.8307 16.6453 77.3294 17.184 76.6894 17.568C76.06 17.952 75.356 18.144 74.5774 18.144C73.8307 18.144 73.1694 17.9787 72.5934 17.648C72.028 17.3067 71.596 16.8853 71.2974 16.384V22.16H69.8414V9.232H71.2974V10.848ZM77.2494 13.584C77.2494 12.9227 77.116 12.3467 76.8494 11.856C76.5827 11.3653 76.22 10.992 75.7614 10.736C75.3134 10.48 74.8174 10.352 74.2734 10.352C73.74 10.352 73.244 10.4853 72.7854 10.752C72.3374 11.008 71.9747 11.3867 71.6974 11.888C71.4307 12.3787 71.2974 12.9493 71.2974 13.6C71.2974 14.2613 71.4307 14.8427 71.6974 15.344C71.9747 15.8347 72.3374 16.2133 72.7854 16.48C73.244 16.736 73.74 16.864 74.2734 16.864C74.8174 16.864 75.3134 16.736 75.7614 16.48C76.22 16.2133 76.5827 15.8347 76.8494 15.344C77.116 14.8427 77.2494 14.256 77.2494 13.584ZM80.1099 13.584C80.1099 12.688 80.2912 11.904 80.6539 11.232C81.0165 10.5493 81.5125 10.0213 82.1419 9.648C82.7819 9.27467 83.4912 9.088 84.2699 9.088C85.0379 9.088 85.7045 9.25333 86.2699 9.584C86.8352 9.91467 87.2565 10.3307 87.5339 10.832V9.232H89.0059V18H87.5339V16.368C87.2459 16.88 86.8139 17.3067 86.2379 17.648C85.6725 17.9787 85.0112 18.144 84.2539 18.144C83.4752 18.144 82.7712 17.952 82.1419 17.568C81.5125 17.184 81.0165 16.6453 80.6539 15.952C80.2912 15.2587 80.1099 14.4693 80.1099 13.584ZM87.5339 13.6C87.5339 12.9387 87.4005 12.3627 87.1339 11.872C86.8672 11.3813 86.5045 11.008 86.0459 10.752C85.5979 10.4853 85.1019 10.352 84.5579 10.352C84.0139 10.352 83.5179 10.48 83.0699 10.736C82.6219 10.992 82.2645 11.3653 81.9979 11.856C81.7312 12.3467 81.5979 12.9227 81.5979 13.584C81.5979 14.256 81.7312 14.8427 81.9979 15.344C82.2645 15.8347 82.6219 16.2133 83.0699 16.48C83.5179 16.736 84.0139 16.864 84.5579 16.864C85.1019 16.864 85.5979 16.736 86.0459 16.48C86.5045 16.2133 86.8672 15.8347 87.1339 15.344C87.4005 14.8427 87.5339 14.2613 87.5339 13.6ZM92.9224 10.656C93.1784 10.1547 93.541 9.76533 94.0104 9.488C94.4904 9.21067 95.0717 9.072 95.7544 9.072V10.576H95.3704C93.7384 10.576 92.9224 11.4613 92.9224 13.232V18H91.4664V9.232H92.9224V10.656ZM105.435 13.28C105.435 13.5573 105.419 13.8507 105.387 14.16H98.3791C98.4325 15.024 98.7258 15.7013 99.2591 16.192C99.8031 16.672 100.459 16.912 101.227 16.912C101.856 16.912 102.379 16.768 102.795 16.48C103.222 16.1813 103.52 15.7867 103.691 15.296H105.259C105.024 16.1387 104.555 16.8267 103.851 17.36C103.147 17.8827 102.272 18.144 101.227 18.144C100.395 18.144 99.6485 17.9573 98.9871 17.584C98.3365 17.2107 97.8245 16.6827 97.4511 16C97.0778 15.3067 96.8911 14.5067 96.8911 13.6C96.8911 12.6933 97.0725 11.8987 97.4351 11.216C97.7978 10.5333 98.3045 10.0107 98.9551 9.648C99.6165 9.27467 100.374 9.088 101.227 9.088C102.059 9.088 102.795 9.26933 103.435 9.632C104.075 9.99467 104.566 10.496 104.907 11.136C105.259 11.7653 105.435 12.48 105.435 13.28ZM103.931 12.976C103.931 12.4213 103.808 11.9467 103.563 11.552C103.318 11.1467 102.982 10.8427 102.555 10.64C102.139 10.4267 101.675 10.32 101.163 10.32C100.427 10.32 99.7978 10.5547 99.2751 11.024C98.7631 11.4933 98.4698 12.144 98.3951 12.976H103.931ZM107.821 18.096C107.544 18.096 107.309 18 107.117 17.808C106.925 17.616 106.829 17.3813 106.829 17.104C106.829 16.8267 106.925 16.592 107.117 16.4C107.309 16.208 107.544 16.112 107.821 16.112C108.088 16.112 108.312 16.208 108.493 16.4C108.685 16.592 108.781 16.8267 108.781 17.104C108.781 17.3813 108.685 17.616 108.493 17.808C108.312 18 108.088 18.096 107.821 18.096ZM115.068 9.072C115.73 9.072 116.327 9.216 116.86 9.504C117.394 9.78133 117.81 10.2027 118.108 10.768C118.418 11.3333 118.572 12.0213 118.572 12.832V18H117.132V13.04C117.132 12.1653 116.914 11.4987 116.476 11.04C116.039 10.5707 115.442 10.336 114.684 10.336C113.916 10.336 113.303 10.576 112.844 11.056C112.396 11.536 112.172 12.2347 112.172 13.152V18H110.716V6.16H112.172V10.48C112.46 10.032 112.855 9.68533 113.356 9.44C113.868 9.19467 114.439 9.072 115.068 9.072ZM122.407 10.656C122.663 10.1547 123.025 9.76533 123.495 9.488C123.975 9.21067 124.556 9.072 125.239 9.072V10.576H124.855C123.223 10.576 122.407 11.4613 122.407 13.232V18H120.951V9.232H122.407V10.656Z" fill="white"/>
<circle cx="12" cy="12" r="11.5" stroke="white"/>
<path d="M15.8891 15.8891C15.1199 16.6583 14.1399 17.1821 13.073 17.3943C12.0061 17.6065 10.9002 17.4976 9.89524 17.0813C8.89025 16.6651 8.03127 15.9601 7.42692 15.0556C6.82257 14.1512 6.5 13.0878 6.5 12C6.5 10.9122 6.82257 9.84883 7.42692 8.94436C8.03126 8.03989 8.89025 7.33495 9.89524 6.91866C10.9002 6.50238 12.0061 6.39346 13.073 6.60568C14.1399 6.8179 15.1199 7.34172 15.8891 8.11091" stroke="white"/>
</svg>
