<svg width="48" height="48" viewBox="0 0 48 48" fill="none" xmlns="http://www.w3.org/2000/svg">
<g clip-path="url(#clip0_1_2640)">
<path d="M23.9985 27.7925C26.0932 27.7925 27.7912 26.0945 27.7912 23.9999C27.7912 21.9053 26.0932 20.2073 23.9985 20.2073C21.9039 20.2073 20.2059 21.9053 20.2059 23.9999C20.2059 26.0945 21.9039 27.7925 23.9985 27.7925Z" fill="white"/>
<path d="M28.8509 14.4158H19.1498C17.8935 14.4158 16.6887 14.9148 15.8004 15.8032C14.912 16.6915 14.413 17.8963 14.413 19.1526V28.8505C14.413 30.1068 14.912 31.3116 15.8004 32.2C16.6887 33.0883 17.8935 33.5873 19.1498 33.5873H28.8509C30.1072 33.5873 31.312 33.0883 32.2003 32.2C33.0887 31.3116 33.5877 30.1068 33.5877 28.8505V19.1495C33.5869 17.8937 33.0874 16.6897 32.1992 15.802C31.311 14.9144 30.1066 14.4158 28.8509 14.4158ZM24.0003 30.2084C22.7723 30.209 21.5716 29.8454 20.5503 29.1636C19.5289 28.4818 18.7326 27.5124 18.2623 26.378C17.7919 25.2436 17.6685 23.9952 17.9077 22.7907C18.1469 21.5862 18.7379 20.4797 19.606 19.6111C20.4742 18.7425 21.5804 18.1509 22.7848 17.9111C23.9892 17.6713 25.2377 17.794 26.3723 18.2638C27.5069 18.7337 28.4767 19.5294 29.1591 20.5504C29.8414 21.5715 30.2056 22.7719 30.2056 24C30.2039 25.6455 29.5497 27.2232 28.3865 28.387C27.2232 29.5509 25.6459 30.2059 24.0003 30.2084ZM30.2435 19.3263C29.9397 19.3269 29.6425 19.2374 29.3897 19.069C29.1368 18.9006 28.9396 18.6609 28.823 18.3803C28.7065 18.0998 28.6758 17.7909 28.7349 17.4929C28.7941 17.1949 28.9403 16.9212 29.1551 16.7063C29.37 16.4915 29.6437 16.3453 29.9417 16.2862C30.2397 16.227 30.5486 16.2577 30.8291 16.3743C31.1097 16.4908 31.3493 16.688 31.5177 16.9409C31.6861 17.1937 31.7757 17.4909 31.7751 17.7947C31.7742 18.2007 31.6126 18.5897 31.3256 18.8768C31.0385 19.1638 30.6494 19.3255 30.2435 19.3263Z" fill="white"/>
<path d="M24 0C19.2532 0 14.6131 1.40758 10.6663 4.04473C6.71951 6.68188 3.64337 10.4302 1.82687 14.8156C0.0103682 19.201 -0.464912 24.0266 0.461134 28.6822C1.38718 33.3377 3.67296 37.6141 7.02942 40.9706C10.3859 44.327 14.6623 46.6128 19.3178 47.5389C23.9734 48.4649 28.799 47.9896 33.1844 46.1731C37.5698 44.3566 41.3181 41.2805 43.9553 37.3337C46.5924 33.3869 48 28.7468 48 24C48 17.6348 45.4714 11.5303 40.9705 7.02944C36.4697 2.52856 30.3652 0 24 0V0ZM36 28.8505C35.9983 30.7462 35.2445 32.5637 33.9041 33.9041C32.5637 35.2445 30.7462 35.9983 28.8505 36H19.1495C17.2541 35.9975 15.437 35.2434 14.0968 33.9032C12.7565 32.563 12.0025 30.7459 12 28.8505V19.1495C12.0025 17.2541 12.7565 15.437 14.0968 14.0968C15.437 12.7566 17.2541 12.0025 19.1495 12H28.8505C30.7459 12.0025 32.5629 12.7566 33.9032 14.0968C35.2434 15.437 35.9975 17.2541 36 19.1495V28.8505Z" fill="white"/>
</g>
<defs>
<clipPath id="clip0_1_2640">
<rect width="48" height="48" fill="white"/>
</clipPath>
</defs>
</svg>
