<svg width="48" height="48" viewBox="0 0 48 48" fill="none" xmlns="http://www.w3.org/2000/svg">
<g clip-path="url(#clip0_1_2641)">
<path d="M24 0C19.2532 0 14.6131 1.40758 10.6663 4.04473C6.71951 6.68188 3.64337 10.4302 1.82687 14.8156C0.0103644 19.201 -0.464916 24.0266 0.46113 28.6822C1.38718 33.3377 3.67295 37.6141 7.02941 40.9706C10.3859 44.327 14.6623 46.6128 19.3178 47.5389C23.9734 48.4649 28.799 47.9896 33.1844 46.1731C37.5698 44.3566 41.3181 41.2805 43.9552 37.3337C46.5924 33.3869 48 28.7468 48 24C48 17.6348 45.4714 11.5303 40.9705 7.02944C36.4697 2.52856 30.3652 0 24 0V0ZM17.8926 35.1884C17.8926 35.4037 17.8071 35.6101 17.6549 35.7623C17.5027 35.9145 17.2963 36 17.081 36H13.6326C13.5259 36.0004 13.4202 35.9797 13.3215 35.9391C13.2229 35.8984 13.1333 35.8387 13.0578 35.7632C12.9824 35.6878 12.9226 35.5981 12.882 35.4995C12.8413 35.4008 12.8206 35.2951 12.821 35.1884V20.7284C12.821 20.5132 12.9065 20.3067 13.0587 20.1545C13.2109 20.0023 13.4174 19.9168 13.6326 19.9168H17.081C17.2963 19.9168 17.5027 20.0023 17.6549 20.1545C17.8071 20.3067 17.8926 20.5132 17.8926 20.7284V35.1884ZM15.3663 18.5558C14.7176 18.5583 14.0827 18.3683 13.5421 18.0097C13.0015 17.6512 12.5794 17.1403 12.3292 16.5418C12.0791 15.9432 12.0122 15.2839 12.137 14.6473C12.2618 14.0108 12.5727 13.4255 13.0303 12.9657C13.4879 12.5059 14.0716 12.1922 14.7076 12.0643C15.3436 11.9365 16.0032 12.0002 16.6029 12.2474C17.2027 12.4947 17.7156 12.9143 18.0767 13.4532C18.4378 13.9921 18.6309 14.626 18.6316 15.2747C18.632 15.7052 18.5476 16.1315 18.3833 16.5294C18.2189 16.9272 17.9778 17.2888 17.6737 17.5935C17.3696 17.8982 17.0085 18.14 16.611 18.3051C16.2134 18.4702 15.7873 18.5554 15.3568 18.5558H15.3663ZM35.9305 35.2547C35.9305 35.4524 35.852 35.642 35.7122 35.7817C35.5725 35.9215 35.3829 36 35.1852 36H31.4747C31.2771 36 31.0875 35.9215 30.9477 35.7817C30.808 35.642 30.7295 35.4524 30.7295 35.2547V28.4716C30.7295 27.4579 31.0231 24.0505 28.0831 24.0505C25.8031 24.0505 25.3389 26.3937 25.241 27.4453V35.2705C25.2369 35.4643 25.1575 35.6489 25.0195 35.7851C24.8815 35.9213 24.6959 35.9984 24.5021 36H20.921C20.823 36.0004 20.7259 35.9814 20.6353 35.9441C20.5447 35.9068 20.4624 35.8519 20.3931 35.7826C20.3238 35.7134 20.2689 35.631 20.2316 35.5404C20.1943 35.4498 20.1753 35.3527 20.1758 35.2547V20.6653C20.1754 20.5671 20.1943 20.4699 20.2316 20.3791C20.2689 20.2883 20.3237 20.2058 20.3929 20.1362C20.4622 20.0667 20.5445 20.0115 20.6351 19.9739C20.7257 19.9362 20.8229 19.9168 20.921 19.9168H24.5021C24.6014 19.9152 24.7001 19.9333 24.7924 19.9701C24.8846 20.007 24.9686 20.0619 25.0395 20.1315C25.1103 20.2012 25.1666 20.2843 25.205 20.3759C25.2434 20.4675 25.2631 20.5659 25.2631 20.6653V21.9284C26.1095 20.6653 27.3663 19.6768 30.041 19.6768C35.9716 19.6768 35.9368 25.2158 35.9368 28.2568L35.9305 35.2547Z" fill="white"/>
</g>
<defs>
<clipPath id="clip0_1_2641">
<rect width="48" height="48" fill="white"/>
</clipPath>
</defs>
</svg>
