<svg width="48" height="48" viewBox="0 0 48 48" fill="none" xmlns="http://www.w3.org/2000/svg">
<g clip-path="url(#clip0_1_2643)">
<path d="M21.1279 19.4023L28.6152 24.0002L21.1279 28.6013V19.4023Z" fill="white"/>
<path d="M24 0C19.2532 0 14.6131 1.40758 10.6663 4.04473C6.71951 6.68188 3.64337 10.4302 1.82687 14.8156C0.0103682 19.201 -0.464912 24.0266 0.461134 28.6822C1.38718 33.3377 3.67296 37.6141 7.02942 40.9706C10.3859 44.327 14.6623 46.6128 19.3178 47.5389C23.9734 48.4649 28.799 47.9896 33.1844 46.1731C37.5698 44.3566 41.3181 41.2805 43.9553 37.3337C46.5924 33.3869 48 28.7468 48 24C48 17.6348 45.4714 11.5303 40.9705 7.02944C36.4697 2.52856 30.3652 0 24 0V0ZM35.4379 29.7758C34.9579 31.2505 33.3695 32.1474 31.9073 32.3526C26.6506 32.9116 21.3494 32.9116 16.0926 32.3526C14.6305 32.1474 13.0421 31.2505 12.5621 29.7758C11.8137 25.9627 11.8137 22.0405 12.5621 18.2274C13.0421 16.7368 14.6305 15.8558 16.1052 15.6505C21.362 15.0916 26.6632 15.0916 31.92 15.6505C33.3821 15.8558 34.9705 16.7495 35.4505 18.2274C36.1947 22.0413 36.1904 25.9635 35.4379 29.7758Z" fill="white"/>
</g>
<defs>
<clipPath id="clip0_1_2643">
<rect width="48" height="48" fill="white"/>
</clipPath>
</defs>
</svg>
