<svg width="264" height="60" viewBox="0 0 264 60" fill="none" xmlns="http://www.w3.org/2000/svg">
<rect y="18" width="264" height="28" rx="4" fill="white"/>
<path d="M201.558 24.0942L208.189 37.5491L198.322 42.4116C196.836 43.144 195.037 42.533 194.305 41.0468L190.326 32.9739C189.594 31.4877 190.205 29.6891 191.691 28.9567L201.558 24.0942Z" fill="#6A0098"/>
<path d="M205.551 29.9312L202.456 23.6522L206.044 21.884C207.035 21.3958 208.234 21.8031 208.723 22.7939L210.049 25.4849C210.537 26.4757 210.13 27.6747 209.139 28.163L205.551 29.9312Z" fill="#6A0098"/>
<path d="M209.086 37.1072L205.992 30.8282L209.58 29.06C210.57 28.5718 211.769 28.9791 212.258 29.9699L213.584 32.6609C214.072 33.6517 213.665 34.8507 212.674 35.339L209.086 37.1072Z" fill="#6A0098"/>
<path d="M212.5 26.9999C218 22.4998 222 22.5001 226.5 25C231 27.5 232.5 32 238.5 32.5C244.5 33 254 26.9999 257 18" stroke="#6A0098"/>
</svg>
